<?xml version="1.0" encoding="UTF-8" standalone="no"?>
<!DOCTYPE svg PUBLIC "-//W3C//DTD SVG 1.1//EN" "http://www.w3.org/Graphics/SVG/1.1/DTD/svg11.dtd">
<!-- Generated by graphviz version 2.38.0 (20140413.2041)
 -->
<!-- Title: Perl Pages: 1 -->
<svg width="525pt" height="256pt" viewBox="0.00 0.00 525.20 256.00" xmlns="http://www.w3.org/2000/svg" xmlns:xlink="http://www.w3.org/1999/xlink">
<g id="graph0" class="graph" transform="scale(1 1) rotate(0) translate(4 252)">
<title>Perl</title>
<polygon fill="white" stroke="none" points="-4,4 -4,-252 521.197,-252 521.197,4 -4,4"/>
<text text-anchor="middle" x="258.599" y="-7" font-family="Helvetica,sans-Serif" font-size="10.00">TestFor::MPDbicSchemaViewer::Schema (version 2) generated by DBIx::Class::Visualizer 2016-09-04T15:58:27.</text>
<!-- AnotherResultSource -->
<g id="node1" class="node"><title>AnotherResultSource</title>
<polygon fill="#dddfdd" stroke="none" points="122.099,-82 122.099,-86 268.099,-86 268.099,-82 122.099,-82"/>
<text text-anchor="start" x="194.821" y="-83.2" font-family="Helvetica,sans-Serif" font-size="2.00"> </text>
<polygon fill="#dddfdd" stroke="none" points="122.099,-64 122.099,-82 268.099,-82 268.099,-64 122.099,-64"/>
<text text-anchor="start" x="122.747" y="-69.4" font-family="Helvetica,sans-Serif" font-weight="bold" font-size="14.00">AnotherResultSource </text>
<text text-anchor="start" x="259.669" y="-69.4" font-family="Helvetica,sans-Serif" font-size="14.00"> </text>
<text text-anchor="start" x="263.56" y="-69.4" font-family="Helvetica,sans-Serif" font-size="14.00" fill="#dddfdd"> </text>
<text text-anchor="start" x="194.543" y="-59.4" font-family="Helvetica,sans-Serif" font-size="4.00"> </text>
<text text-anchor="start" x="123.099" y="-45.4" font-family="Helvetica,sans-Serif" font-weight="bold" font-size="12.00">an_id</text>
<text text-anchor="start" x="152.445" y="-45.4" font-family="Helvetica,sans-Serif" font-size="12.00"> </text>
<text text-anchor="start" x="155.779" y="-45.4" font-family="Helvetica,sans-Serif" font-size="14.00" fill="#ffffff">__</text>
<text text-anchor="start" x="123.099" y="-27.4" font-family="Helvetica,sans-Serif" text-decoration="underline" font-size="12.00">author_id</text>
<text text-anchor="start" x="173.116" y="-27.4" font-family="Helvetica,sans-Serif" font-size="12.00"> </text>
<text text-anchor="start" x="176.451" y="-27.4" font-family="Helvetica,sans-Serif" font-size="14.00" fill="#ffffff">__</text>
<polygon fill="none" stroke="black" points="121.099,-21 121.099,-87 269.099,-87 269.099,-21 121.099,-21"/>
</g>
<!-- Author -->
<g id="node2" class="node"><title>Author</title>
<polygon fill="#dddfdd" stroke="none" points="158.099,-188 158.099,-192 232.099,-192 232.099,-188 158.099,-188"/>
<text text-anchor="start" x="194.821" y="-189.2" font-family="Helvetica,sans-Serif" font-size="2.00"> </text>
<polygon fill="#dddfdd" stroke="none" points="158.099,-170 158.099,-188 232.099,-188 232.099,-170 158.099,-170"/>
<text text-anchor="start" x="159.099" y="-175.4" font-family="Helvetica,sans-Serif" font-weight="bold" font-size="14.00">Author </text>
<text text-anchor="start" x="204.225" y="-175.4" font-family="Helvetica,sans-Serif" font-size="14.00"> </text>
<text text-anchor="start" x="208.115" y="-175.4" font-family="Helvetica,sans-Serif" font-size="14.00" fill="#dddfdd"> </text>
<text text-anchor="start" x="194.543" y="-165.4" font-family="Helvetica,sans-Serif" font-size="4.00"> </text>
<text text-anchor="start" x="159.099" y="-151.4" font-family="Helvetica,sans-Serif" font-weight="bold" font-size="12.00">author_id</text>
<text text-anchor="start" x="209.116" y="-151.4" font-family="Helvetica,sans-Serif" font-size="12.00"> </text>
<text text-anchor="start" x="212.451" y="-151.4" font-family="Helvetica,sans-Serif" font-size="14.00" fill="#ffffff">__</text>
<text text-anchor="start" x="159.099" y="-133.4" font-family="Helvetica,sans-Serif" font-size="12.00">name </text>
<text text-anchor="start" x="192.441" y="-133.4" font-family="Helvetica,sans-Serif" font-size="14.00" fill="#ffffff">__</text>
<text text-anchor="start" x="158.973" y="-115.4" font-family="Helvetica,sans-Serif" font-size="12.00">birth_date </text>
<text text-anchor="start" x="215.659" y="-115.4" font-family="Helvetica,sans-Serif" font-size="14.00" fill="#ffffff">__</text>
<polygon fill="none" stroke="black" points="157.099,-109 157.099,-193 233.099,-193 233.099,-109 157.099,-109"/>
</g>
<!-- Book -->
<g id="node3" class="node"><title>Book</title>
<polygon fill="#dddfdd" stroke="none" points="325.099,-242 325.099,-246 395.099,-246 395.099,-242 325.099,-242"/>
<text text-anchor="start" x="359.821" y="-243.2" font-family="Helvetica,sans-Serif" font-size="2.00"> </text>
<polygon fill="#dddfdd" stroke="none" points="325.099,-224 325.099,-242 395.099,-242 395.099,-224 325.099,-224"/>
<text text-anchor="start" x="326.099" y="-229.4" font-family="Helvetica,sans-Serif" font-weight="bold" font-size="14.00">Book </text>
<text text-anchor="start" x="361.891" y="-229.4" font-family="Helvetica,sans-Serif" font-size="14.00"> </text>
<text text-anchor="start" x="365.782" y="-229.4" font-family="Helvetica,sans-Serif" font-size="14.00" fill="#dddfdd"> </text>
<text text-anchor="start" x="359.543" y="-219.4" font-family="Helvetica,sans-Serif" font-size="4.00"> </text>
<text text-anchor="start" x="326.099" y="-205.4" font-family="Helvetica,sans-Serif" font-weight="bold" font-size="12.00">book_id</text>
<text text-anchor="start" x="368.115" y="-205.4" font-family="Helvetica,sans-Serif" font-size="12.00"> </text>
<text text-anchor="start" x="371.45" y="-205.4" font-family="Helvetica,sans-Serif" font-size="14.00" fill="#ffffff">__</text>
<text text-anchor="start" x="326.099" y="-187.4" font-family="Helvetica,sans-Serif" font-size="12.00">isbn </text>
<text text-anchor="start" x="351.438" y="-187.4" font-family="Helvetica,sans-Serif" font-size="14.00" fill="#ffffff">__</text>
<text text-anchor="start" x="326.099" y="-169.4" font-family="Helvetica,sans-Serif" font-size="12.00">title </text>
<text text-anchor="start" x="348.099" y="-169.4" font-family="Helvetica,sans-Serif" font-size="14.00" fill="#ffffff">__</text>
<text text-anchor="start" x="325.64" y="-151.4" font-family="Helvetica,sans-Serif" text-decoration="underline" font-size="12.00">author_id</text>
<text text-anchor="start" x="375.657" y="-151.4" font-family="Helvetica,sans-Serif" font-size="12.00"> </text>
<text text-anchor="start" x="378.992" y="-151.4" font-family="Helvetica,sans-Serif" font-size="14.00" fill="#ffffff">__</text>
<polygon fill="none" stroke="black" points="324.099,-145 324.099,-247 396.099,-247 396.099,-145 324.099,-145"/>
</g>
<!-- Author&#45;&gt;Book -->
<g id="edge1" class="edge"><title>Author:author_id-&gt;Book:author_id</title>
<path fill="none" stroke="black" d="M243.309,-155C267.657,-155 280.289,-155 300.805,-155"/>
<polyline fill="none" stroke="black" points="233.099,-155 238.099,-155 "/>
<polygon fill="black" stroke="black" points="239.098,-160 239.099,-150 241.099,-150 241.098,-160 239.098,-160"/>
<polyline fill="none" stroke="black" points="238.099,-155 243.099,-155 "/>
<polygon fill="black" stroke="black" points="314.099,-155 324.099,-159.5 319.099,-155 324.099,-155 324.099,-155 324.099,-155 319.099,-155 324.098,-150.5 314.099,-155 314.099,-155"/>
<polyline fill="none" stroke="black" points="314.099,-155 309.099,-155 "/>
<ellipse fill="none" stroke="black" cx="305.099" cy="-155" rx="4" ry="4"/>
</g>
</g>
</svg>