<?xml version="1.0" encoding="UTF-8" standalone="no"?>
<!DOCTYPE svg PUBLIC "-//W3C//DTD SVG 1.1//EN"
 "http://www.w3.org/Graphics/SVG/1.1/DTD/svg11.dtd">
<!-- Generated by graphviz version 2.38.0 (20140413.2041)
 -->
<!-- Title: Perl Pages: 1 -->
<svg width="520pt" height="308pt"
 viewBox="0.00 0.00 520.19 308.00" xmlns="http://www.w3.org/2000/svg" xmlns:xlink="http://www.w3.org/1999/xlink">
<g id="graph0" class="graph" transform="scale(1 1) rotate(0) translate(4 304)">
<title>Perl</title>
<polygon fill="white" stroke="none" points="-4,4 -4,-304 516.188,-304 516.188,4 -4,4"/>
<text text-anchor="middle" x="256.094" y="-7" font-family="Helvetica,sans-Serif" font-size="10.00">TestFor::MPDbicSchemaViewer::Schema (version 2) rendered by DBIx::Class::Visualizer 2016&#45;09&#45;04T19:16:02.</text>
<!-- Author -->
<g id="node1" class="node"><title>Author</title>
<polygon fill="#dddfdd" stroke="none" points="147.594,-100 147.594,-104 221.594,-104 221.594,-100 147.594,-100"/>
<text text-anchor="start" x="184.316" y="-101.2" font-family="Helvetica,sans-Serif" font-size="2.00"> </text>
<polygon fill="#dddfdd" stroke="none" points="147.594,-82 147.594,-100 221.594,-100 221.594,-82 147.594,-82"/>
<text text-anchor="start" x="148.594" y="-87.4" font-family="Helvetica,sans-Serif" font-weight="bold" font-size="14.00">Author </text>
<text text-anchor="start" x="193.72" y="-87.4" font-family="Helvetica,sans-Serif" font-size="14.00"> </text>
<text text-anchor="start" x="197.611" y="-87.4" font-family="Helvetica,sans-Serif" font-size="14.00" fill="#dddfdd"> </text>
<text text-anchor="start" x="184.038" y="-77.4" font-family="Helvetica,sans-Serif" font-size="4.00"> </text>
<text text-anchor="start" x="148.594" y="-63.4" font-family="Helvetica,sans-Serif" font-weight="bold" font-size="12.00">author_id</text>
<text text-anchor="start" x="198.611" y="-63.4" font-family="Helvetica,sans-Serif" font-size="12.00"> </text>
<text text-anchor="start" x="201.946" y="-63.4" font-family="Helvetica,sans-Serif" font-size="14.00" fill="#ffffff">__</text>
<text text-anchor="start" x="148.594" y="-45.4" font-family="Helvetica,sans-Serif" font-size="12.00">name </text>
<text text-anchor="start" x="181.936" y="-45.4" font-family="Helvetica,sans-Serif" font-size="14.00" fill="#ffffff">__</text>
<text text-anchor="start" x="148.468" y="-27.4" font-family="Helvetica,sans-Serif" font-size="12.00">birth_date </text>
<text text-anchor="start" x="205.155" y="-27.4" font-family="Helvetica,sans-Serif" font-size="14.00" fill="#ffffff">__</text>
<polygon fill="none" stroke="black" points="146.594,-21 146.594,-105 222.594,-105 222.594,-21 146.594,-21"/>
</g>
<!-- BookAuthor -->
<g id="node3" class="node"><title>BookAuthor</title>
<polygon fill="#dddfdd" stroke="none" points="353.594,-162 353.594,-166 439.594,-166 439.594,-162 353.594,-162"/>
<text text-anchor="start" x="396.316" y="-163.2" font-family="Helvetica,sans-Serif" font-size="2.00"> </text>
<polygon fill="#dddfdd" stroke="none" points="353.594,-144 353.594,-162 439.594,-162 439.594,-144 353.594,-144"/>
<text text-anchor="start" x="354.189" y="-149.4" font-family="Helvetica,sans-Serif" font-weight="bold" font-size="14.00">BookAuthor </text>
<text text-anchor="start" x="431.217" y="-149.4" font-family="Helvetica,sans-Serif" font-size="14.00"> </text>
<text text-anchor="start" x="435.108" y="-149.4" font-family="Helvetica,sans-Serif" font-size="14.00" fill="#dddfdd"> </text>
<text text-anchor="start" x="396.038" y="-139.4" font-family="Helvetica,sans-Serif" font-size="4.00"> </text>
<text text-anchor="start" x="354.594" y="-125.4" font-family="Helvetica,sans-Serif" font-weight="bold" text-decoration="underline" font-size="12.00">book_id</text>
<text text-anchor="start" x="396.611" y="-125.4" font-family="Helvetica,sans-Serif" font-size="12.00"> </text>
<text text-anchor="start" x="399.946" y="-125.4" font-family="Helvetica,sans-Serif" font-size="14.00" fill="#ffffff">__</text>
<text text-anchor="start" x="354.594" y="-107.4" font-family="Helvetica,sans-Serif" font-weight="bold" text-decoration="underline" font-size="12.00">author_id</text>
<text text-anchor="start" x="404.611" y="-107.4" font-family="Helvetica,sans-Serif" font-size="12.00"> </text>
<text text-anchor="start" x="407.946" y="-107.4" font-family="Helvetica,sans-Serif" font-size="14.00" fill="#ffffff">__</text>
<polygon fill="none" stroke="black" points="352.594,-101 352.594,-167 440.594,-167 440.594,-101 352.594,-101"/>
</g>
<!-- Author&#45;&gt;BookAuthor -->
<g id="edge1" class="edge"><title>Author:author_id&#45;&gt;BookAuthor:author_id</title>
<path fill="none" stroke="black" d="M232.792,-67.4355C276.903,-71.3179 291.087,-100.05 329.572,-108.604"/>
<polyline fill="none" stroke="black" points="222.594,-67 227.589,-67.2134 "/>
<polygon fill="black" stroke="black" points="228.375,-72.2515 228.802,-62.2606 230.8,-62.3459 230.373,-72.3368 228.375,-72.2515"/>
<polyline fill="none" stroke="black" points="227.589,-67.2134 232.585,-67.4267 "/>
<polygon fill="black" stroke="black" points="342.648,-109.965 352.128,-115.476 347.621,-110.482 352.594,-111 352.594,-111 352.594,-111 347.621,-110.482 353.06,-106.524 342.648,-109.965 342.648,-109.965"/>
<polyline fill="none" stroke="black" points="342.648,-109.965 337.675,-109.447 "/>
<ellipse fill="none" stroke="black" cx="333.696" cy="-109.033" rx="4" ry="4"/>
</g>
<!-- Book -->
<g id="node2" class="node"><title>Book</title>
<polygon fill="#dddfdd" stroke="none" points="153.594,-206 153.594,-210 215.594,-210 215.594,-206 153.594,-206"/>
<text text-anchor="start" x="184.316" y="-207.2" font-family="Helvetica,sans-Serif" font-size="2.00"> </text>
<polygon fill="#dddfdd" stroke="none" points="153.594,-188 153.594,-206 215.594,-206 215.594,-188 153.594,-188"/>
<text text-anchor="start" x="154.594" y="-193.4" font-family="Helvetica,sans-Serif" font-weight="bold" font-size="14.00">Book </text>
<text text-anchor="start" x="190.386" y="-193.4" font-family="Helvetica,sans-Serif" font-size="14.00"> </text>
<text text-anchor="start" x="194.277" y="-193.4" font-family="Helvetica,sans-Serif" font-size="14.00" fill="#dddfdd"> </text>
<text text-anchor="start" x="184.038" y="-183.4" font-family="Helvetica,sans-Serif" font-size="4.00"> </text>
<text text-anchor="start" x="154.136" y="-169.4" font-family="Helvetica,sans-Serif" font-weight="bold" font-size="12.00">book_id</text>
<text text-anchor="start" x="196.152" y="-169.4" font-family="Helvetica,sans-Serif" font-size="12.00"> </text>
<text text-anchor="start" x="199.487" y="-169.4" font-family="Helvetica,sans-Serif" font-size="14.00" fill="#ffffff">__</text>
<text text-anchor="start" x="154.594" y="-151.4" font-family="Helvetica,sans-Serif" font-size="12.00">isbn </text>
<text text-anchor="start" x="179.933" y="-151.4" font-family="Helvetica,sans-Serif" font-size="14.00" fill="#ffffff">__</text>
<text text-anchor="start" x="154.594" y="-133.4" font-family="Helvetica,sans-Serif" font-size="12.00">title </text>
<text text-anchor="start" x="176.595" y="-133.4" font-family="Helvetica,sans-Serif" font-size="14.00" fill="#ffffff">__</text>
<polygon fill="none" stroke="black" points="152.594,-127 152.594,-211 216.594,-211 216.594,-127 152.594,-127"/>
</g>
<!-- Book&#45;&gt;BookAuthor -->
<g id="edge2" class="edge"><title>Book:book_id&#45;&gt;BookAuthor:book_id</title>
<path fill="none" stroke="black" d="M226.883,-172.593C273.551,-168.789 288.55,-139.46 329.656,-131.174"/>
<polyline fill="none" stroke="black" points="216.594,-173 221.59,-172.802 "/>
<polygon fill="black" stroke="black" points="222.787,-177.759 222.391,-167.766 224.39,-167.687 224.786,-177.679 222.787,-177.759"/>
<polyline fill="none" stroke="black" points="221.59,-172.802 226.586,-172.604 "/>
<polygon fill="black" stroke="black" points="342.639,-129.944 353.019,-133.48 347.616,-129.472 352.594,-129 352.594,-129 352.594,-129 347.616,-129.472 352.169,-124.52 342.639,-129.944 342.639,-129.944"/>
<polyline fill="none" stroke="black" points="342.639,-129.944 337.661,-130.415 "/>
<ellipse fill="none" stroke="black" cx="333.679" cy="-130.793" rx="4" ry="4"/>
</g>
<!-- ResultSourceWithMissingRelation -->
<g id="node4" class="node"><title>ResultSourceWithMissingRelation</title>
<polygon fill="#dddfdd" stroke="none" points="72.594,-294 72.594,-298 296.594,-298 296.594,-294 72.594,-294"/>
<text text-anchor="start" x="184.316" y="-295.2" font-family="Helvetica,sans-Serif" font-size="2.00"> </text>
<polygon fill="#dddfdd" stroke="none" points="72.594,-276 72.594,-294 296.594,-294 296.594,-276 72.594,-276"/>
<text text-anchor="start" x="73.364" y="-281.4" font-family="Helvetica,sans-Serif" font-weight="bold" font-size="14.00">ResultSourceWithMissingRelation </text>
<text text-anchor="start" x="288.043" y="-281.4" font-family="Helvetica,sans-Serif" font-size="14.00"> </text>
<text text-anchor="start" x="291.933" y="-281.4" font-family="Helvetica,sans-Serif" font-size="14.00" fill="#dddfdd"> </text>
<text text-anchor="start" x="184.038" y="-271.4" font-family="Helvetica,sans-Serif" font-size="4.00"> </text>
<text text-anchor="start" x="73.594" y="-257.4" font-family="Helvetica,sans-Serif" font-weight="bold" font-size="12.00">an_id</text>
<text text-anchor="start" x="102.94" y="-257.4" font-family="Helvetica,sans-Serif" font-size="12.00"> </text>
<text text-anchor="start" x="106.275" y="-257.4" font-family="Helvetica,sans-Serif" font-size="14.00" fill="#ffffff">__</text>
<text text-anchor="start" x="73.594" y="-239.4" font-family="Helvetica,sans-Serif" text-decoration="underline" font-size="12.00">author_id</text>
<text text-anchor="start" x="123.611" y="-239.4" font-family="Helvetica,sans-Serif" font-size="12.00"> </text>
<text text-anchor="start" x="126.946" y="-239.4" font-family="Helvetica,sans-Serif" font-size="14.00" fill="#ffffff">__</text>
<polygon fill="none" stroke="black" points="71.594,-233 71.594,-299 297.594,-299 297.594,-233 71.594,-233"/>
</g>
</g>
</svg>
